<?xml version="1.0" standalone="no"?>
<!DOCTYPE svg PUBLIC "-//W3C//DTD SVG 20010904//EN"
 "http://www.w3.org/TR/2001/REC-SVG-20010904/DTD/svg10.dtd">
<svg version="1.0" xmlns="http://www.w3.org/2000/svg"
 width="260.000000pt" height="260.000000pt" viewBox="0 0 260.000000 260.000000"
 preserveAspectRatio="xMidYMid meet">
<metadata>
Created by potrace 1.11, written by Peter Selinger 2001-2013
</metadata>
<g transform="translate(0.000000,260.000000) scale(0.100000,-0.100000)"
fill="#000000" stroke="none">
<path d="M1320 2559 c-274 -27 -520 -165 -680 -379 -218 -294 -302 -720 -234
-1188 56 -389 252 -681 549 -818 288 -133 682 -122 981 26 122 61 179 108 195
159 6 21 10 77 8 125 -6 133 -30 140 -166 48 -110 -75 -243 -132 -351 -152
-101 -18 -275 -14 -365 9 -204 53 -360 193 -444 402 -69 171 -100 408 -84 635
22 308 104 519 260 674 131 130 261 180 471 180 190 0 318 -42 502 -166 140
-94 168 -80 168 84 0 128 -36 175 -195 255 -175 87 -407 128 -615 106z"/>
<path d="M1810 1931 l-25 -7 -3 -489 -2 -490 -113 215 c-252 480 -382 716
-408 743 -26 25 -33 27 -113 27 -139 0 -127 64 -124 -622 l3 -582 37 -8 c21
-4 55 -4 75 0 l38 8 3 509 2 510 123 -231 c319 -602 385 -720 418 -756 35 -37
37 -38 107 -38 122 0 112 -55 112 621 0 318 -3 580 -7 582 -16 10 -99 15 -123
8z"/>
</g>
</svg>
